<?xml version="1.0" encoding="UTF-8" standalone="no"?>
<!-- Created with Inkscape (http://www.inkscape.org/) -->

<svg
   width="148.87221mm"
   height="43.391651mm"
   viewBox="0 0 148.87221 43.391651"
   version="1.1"
   id="svg1"
   sodipodi:docname="arsdesign-logo1.svg"
   inkscape:version="1.3.1 (91b66b0, 2023-11-16)"
   xmlns:inkscape="http://www.inkscape.org/namespaces/inkscape"
   xmlns:sodipodi="http://sodipodi.sourceforge.net/DTD/sodipodi-0.dtd"
   xmlns="http://www.w3.org/2000/svg"
   xmlns:svg="http://www.w3.org/2000/svg">
  <sodipodi:namedview
     id="namedview1"
     pagecolor="#ffffff"
     bordercolor="#000000"
     borderopacity="0.25"
     inkscape:showpageshadow="2"
     inkscape:pageopacity="0.0"
     inkscape:pagecheckerboard="0"
     inkscape:deskcolor="#d1d1d1"
     inkscape:document-units="mm"
     inkscape:zoom="0.2102413"
     inkscape:cx="292.52102"
     inkscape:cy="14.269318"
     inkscape:window-width="1312"
     inkscape:window-height="449"
     inkscape:window-x="0"
     inkscape:window-y="25"
     inkscape:window-maximized="0"
     inkscape:current-layer="svg1" />
  <defs
     id="defs1" />
  <g
     id="layer1"
     transform="translate(-27.628815,-149.36752)">
    <path
       style="fill:#000000"
       d="m 27.628815,171.06335 v -21.69583 h 74.436115 74.4361 v 21.69583 21.69582 h -74.4361 -74.436115 z m 118.092355,15.26977 c 1.39312,-0.68057 3.12634,-2.41185 3.75247,-3.74827 l 0.48086,-1.02636 0.0504,-8.77535 0.0504,-8.77535 h -0.53543 -0.53542 v 1.61775 1.61774 l -0.54348,-0.82051 c -0.60361,-0.91129 -1.43657,-1.6264 -2.63152,-2.25921 -0.70338,-0.37249 -1.0247,-0.42035 -2.82222,-0.42035 -1.90238,0 -2.09326,0.0328 -3.07072,0.52741 -5.0787,2.56997 -6.16025,9.23939 -2.14767,13.24359 1.78291,1.77918 3.92884,2.50694 6.32344,2.14451 1.81966,-0.27541 3.36577,-1.24392 4.36443,-2.73392 l 0.55922,-0.83437 -0.0682,2.64584 c -0.0631,2.44815 -0.10323,2.71336 -0.53662,3.54966 -0.59583,1.14975 -1.86107,2.41783 -3.0207,3.02747 -0.78671,0.41359 -1.10956,0.47525 -2.49134,0.47582 -1.40771,5.9e-4 -1.70391,-0.0582 -2.61545,-0.51878 -1.27843,-0.64601 -2.79118,-2.2411 -3.21838,-3.39356 -0.1728,-0.46616 -0.32952,-0.87037 -0.34828,-0.89826 -0.0188,-0.0279 -0.24394,0.0449 -0.5004,0.16176 -0.53005,0.24151 -0.51246,0.40365 0.19681,1.81447 0.64969,1.2923 2.12149,2.66656 3.61843,3.37865 1.21571,0.5783 1.36366,0.60647 2.95547,0.56271 1.43964,-0.0396 1.82478,-0.1189 2.73403,-0.56309 z m -3.61598,-7.72563 c -2.1069,-0.30832 -4.03701,-1.78714 -5.01181,-3.83997 -0.50606,-1.06571 -0.54444,-1.28359 -0.54444,-3.09099 0,-1.84306 0.0303,-2.00604 0.58154,-3.12525 0.71376,-1.44928 1.92355,-2.69072 3.21041,-3.29442 0.83074,-0.38973 1.21194,-0.45519 2.64625,-0.45447 1.47277,7.5e-4 1.7825,0.0575 2.55764,0.46862 1.36947,0.72636 2.32782,1.91118 2.93189,3.62475 0.50184,1.4236 0.50349,4.14171 0.003,5.56009 -1.07945,3.06139 -3.41795,4.58435 -6.37485,4.15164 z m -49.752554,1.01444 c 1.52953,-0.20847 3.12206,-1.25679 4.26613,-2.80831 l 0.50727,-0.68792 v 1.61396 1.61397 h 0.52916 0.52917 v -11.46528 -11.46528 h -0.52917 -0.52916 v 5.40633 5.40632 l -0.50727,-0.68792 c -0.769,-1.04287 -1.59538,-1.7576 -2.66773,-2.30729 -0.90546,-0.46414 -1.11127,-0.49724 -3.086804,-0.49649 -2.031807,7.8e-4 -2.164035,0.0239 -3.298175,0.57793 -3.380863,1.65139 -5.255422,5.28161 -4.582074,8.8735 0.613587,3.27312 3.47632,6.0231 6.742391,6.47685 0.625822,0.087 1.296608,0.13519 1.490636,0.1072 0.194027,-0.028 0.705062,-0.0989 1.135626,-0.15757 z m -2.451017,-1.01611 c -2.217065,-0.3265 -4.333202,-1.91205 -5.340799,-4.0017 -0.507914,-1.05336 -0.558943,-1.31294 -0.557346,-2.83521 0.0014,-1.3246 0.08593,-1.88949 0.403505,-2.69603 0.561098,-1.42505 2.020566,-2.95917 3.515138,-3.69495 1.086105,-0.53469 1.298685,-0.57639 2.938406,-0.57639 2.094273,0 2.920983,0.30475 4.119883,1.51868 1.34458,1.36144 1.96924,3.06611 1.96924,5.37393 0,4.62803 -2.94486,7.51592 -7.048027,6.91167 z m -48.0081,0.91558 c 1.218504,-0.19771 2.143688,-0.60282 2.975774,-1.30297 l 0.530639,-0.4465 0.109281,0.6834 c 0.06127,0.38318 0.232285,0.7306 0.389284,0.79085 0.517367,0.19853 3.16964,0.11701 3.390874,-0.10422 0.339338,-0.33934 0.294533,-10.91054 -0.05118,-12.07467 -0.504157,-1.69768 -1.568745,-2.78249 -3.400939,-3.46553 -1.49332,-0.55671 -4.991502,-0.54463 -6.41729,0.0222 -1.453857,0.57795 -2.503945,1.45118 -3.04093,2.52877 -0.535867,1.07534 -0.556621,1.261 -0.182759,1.63487 0.206095,0.20609 0.641512,0.27718 1.697767,0.27718 h 1.420585 l 0.781854,-0.86187 c 0.912646,-1.00605 1.872362,-1.36633 3.135177,-1.17696 1.171502,0.17568 1.792309,0.77656 2.041258,1.97574 0.11221,0.54051 0.137097,1.04554 0.0553,1.12229 -0.08179,0.0767 -1.101212,0.27512 -2.265378,0.44083 -4.710559,0.67053 -6.701756,1.57575 -7.721706,3.51035 -0.518588,0.98364 -0.51509,2.72641 0.0075,3.73757 0.651881,1.26132 2.255733,2.40329 3.806087,2.71002 1.038967,0.20555 1.465185,0.20535 2.738793,-0.001 z m -1.673624,-3.14004 c -0.876338,-0.41139 -1.302191,-0.97306 -1.302191,-1.7175 0,-1.1683 1.25935,-1.97142 3.704167,-2.36222 0.727604,-0.11631 1.670797,-0.27638 2.095984,-0.35571 l 0.773067,-0.14425 -0.113338,1.08436 c -0.23701,2.2676 -1.442803,3.60328 -3.389905,3.75506 -0.788953,0.0615 -1.217616,-0.001 -1.767784,-0.25974 z m 35.074946,2.88944 c 2.584013,-0.77767 3.83953,-2.22973 3.83953,-4.44057 0,-2.72728 -1.432743,-3.97377 -5.655883,-4.92062 -3.017269,-0.67649 -3.869117,-1.20399 -3.869117,-2.39591 0,-0.61332 0.906987,-1.34493 1.840962,-1.48499 1.110943,-0.16659 1.981545,0.11187 3.090603,0.98853 l 0.896786,0.70887 1.432858,-0.0512 c 1.588751,-0.0567 1.878493,-0.24769 1.665219,-1.09744 -0.180487,-0.71912 -1.556662,-2.0923 -2.615665,-2.60998 -1.276051,-0.62378 -2.864986,-0.90492 -4.501655,-0.79649 -2.489246,0.16491 -4.336347,1.11844 -5.281599,2.72654 -0.420274,0.71498 -0.495208,1.03471 -0.489396,2.08814 0.01285,2.32855 1.200965,3.54105 4.314664,4.40321 4.559554,1.26251 4.944152,1.46451 4.93328,2.59107 -0.01064,1.1028 -0.958376,1.7278 -2.619982,1.7278 -1.29494,0 -1.793798,-0.18125 -2.946517,-1.07056 -0.861562,-0.66469 -0.953059,-0.69332 -2.21568,-0.69332 -1.629959,0 -2.018936,0.22297 -1.851285,1.06123 0.320663,1.60331 2.515904,3.12922 5.079,3.53039 1.217329,0.19054 3.921265,0.046 4.953877,-0.26473 z m 36.157449,-0.14605 c 1.15858,-0.51968 2.61169,-1.79714 3.34033,-2.93656 0.61681,-0.96455 0.62589,-1.17937 0.0545,-1.28861 -0.38244,-0.0731 -0.53754,0.0509 -1.07375,0.85877 -2.84198,4.28162 -9.02306,3.76034 -11.22575,-0.94671 -0.28399,-0.60687 -0.55891,-1.42069 -0.61092,-1.80849 l -0.0946,-0.70508 h 7.07878 7.07878 v -0.95156 c 0,-1.10728 -0.51121,-2.88961 -1.16358,-4.05682 -0.67138,-1.20124 -1.86491,-2.30572 -3.204,-2.96495 -1.12894,-0.55578 -1.27125,-0.58153 -3.21343,-0.58153 -1.92971,0 -2.09054,0.0286 -3.1893,0.56628 -2.24627,1.09931 -3.94467,3.45242 -4.40666,6.10539 -0.67684,3.88668 2.00503,8.18182 5.70161,9.13141 0.31225,0.0802 1.32178,0.12 2.24341,0.0884 1.33549,-0.0458 1.88053,-0.1493 2.68459,-0.50996 z m -9.51563,-8.76648 c 0.25543,-1.90435 1.87606,-4.11165 3.72758,-5.07694 0.79457,-0.41425 1.10281,-0.46914 2.66249,-0.47414 1.5839,-0.005 1.86719,0.0451 2.77626,0.49148 1.88068,0.92352 3.53091,3.12645 3.7902,5.0596 l 0.0946,0.70508 h -6.57284 -6.57284 z m 24.19344,8.89057 c 0.55226,-0.19239 1.20551,-0.63125 1.78854,-1.20158 0.74335,-0.72716 0.95394,-1.06784 1.10433,-1.78655 0.21433,-1.02425 0.0442,-2.03188 -0.45828,-2.71426 -0.57381,-0.77926 -2.00256,-1.49301 -5.12639,-2.56093 -1.91996,-0.65636 -3.22448,-1.20626 -3.59456,-1.51522 -0.55051,-0.45958 -0.5809,-0.54655 -0.5809,-1.66264 0,-1.17107 0.005,-1.182 0.81233,-1.9452 1.70363,-1.60964 4.40849,-1.75003 6.79306,-0.35258 0.41581,0.24368 0.89603,0.68009 1.06716,0.96979 0.34107,0.57737 0.44575,0.61521 0.95224,0.34414 0.47273,-0.25299 0.44097,-0.35993 -0.38585,-1.29925 -1.88503,-2.14151 -5.36916,-2.65559 -8.1806,-1.20704 -1.78755,0.921 -2.67528,3.01187 -2.01673,4.74997 0.46,1.21407 1.31787,1.7059 5.32092,3.05054 1.63821,0.55029 3.06323,1.1441 3.47856,1.44954 1.71063,1.25801 1.09934,3.5626 -1.22452,4.61654 -1.11769,0.5069 -3.25357,0.48993 -4.60209,-0.0366 -1.06156,-0.41446 -2.3702,-1.42245 -2.53959,-1.95613 -0.0913,-0.28751 -0.17236,-0.30468 -0.62769,-0.13281 -0.61899,0.23364 -0.61774,0.22688 -0.17529,0.95254 0.62607,1.0268 2.50666,2.18017 4.10969,2.52048 1.03305,0.2193 3.04392,0.0801 4.08566,-0.28278 z m -68.792356,-0.17239 c 0.238317,-0.23832 0.277182,-0.94601 0.277182,-5.04717 0,-4.57718 0.01557,-4.79769 0.385249,-5.45544 0.588492,-1.04708 1.463439,-1.39105 3.538398,-1.39105 2.164309,0 2.249964,-0.073 2.249964,-1.91759 0,-0.82511 -0.08355,-1.44679 -0.211666,-1.57491 -0.130473,-0.13047 -0.770721,-0.21166 -1.669078,-0.21166 -1.712404,0 -3.018845,0.41653 -3.895992,1.24217 l -0.573264,0.5396 v -0.54971 c 0,-1.11655 -0.187456,-1.23206 -1.9994,-1.23206 -1.035868,0 -1.71171,0.0775 -1.845878,0.21166 -0.304383,0.30439 -0.304383,15.14729 0,15.45167 0.336555,0.33656 3.395943,0.28303 3.744485,-0.0655 z m 75.418846,-7.39574 v -7.67292 h -0.52916 -0.52917 v 7.67292 7.67292 h 0.52917 0.52916 z m 21.87222,2.56426 c 0,-4.68356 0.0295,-5.18744 0.35418,-6.05532 0.45995,-1.22931 1.31549,-2.21239 2.49294,-2.86456 0.85234,-0.47209 1.10126,-0.52342 2.53274,-0.52228 1.30613,0.001 1.7195,0.0716 2.33225,0.39796 1.16654,0.62136 1.93331,1.39183 2.46727,2.47916 l 0.49214,1.00217 0.0536,5.33576 0.0536,5.33577 h 0.53097 0.53098 l -0.0554,-5.51216 -0.0554,-5.51215 -0.49713,-1.01237 c -0.63436,-1.29181 -1.87998,-2.53744 -3.11843,-3.11843 -0.84078,-0.39443 -1.2064,-0.45531 -2.73444,-0.45531 -1.52804,0 -1.89366,0.0609 -2.73445,0.45531 -0.5338,0.25043 -1.34739,0.83216 -1.80798,1.29275 l -0.83743,0.83743 v -1.16045 -1.16046 h -0.52917 -0.52917 v 7.67292 7.67292 h 0.52917 0.52917 z m -21.78402,-14.03052 c 0,-0.9763 -1.15304,-1.04668 -1.29557,-0.0791 -0.0779,0.52869 0.4012,0.89967 0.91592,0.70926 0.26372,-0.0976 0.37965,-0.28998 0.37965,-0.63018 z"
       id="path1" />
  </g>
</svg>
